<?xml version="1.0" encoding="UTF-8" standalone="no"?><!DOCTYPE svg PUBLIC "-//W3C//DTD SVG 1.1//EN" "http://www.w3.org/Graphics/SVG/1.1/DTD/svg11.dtd"><svg width="100%" height="100%" viewBox="0 0 1321 813" version="1.1" xmlns="http://www.w3.org/2000/svg" xmlns:xlink="http://www.w3.org/1999/xlink" xml:space="preserve" xmlns:serif="http://www.serif.com/" style="fill-rule:evenodd;clip-rule:evenodd;stroke-miterlimit:2;"><g><path d="M1311.05,433.613c9.9,36.891 -12,74.841 -48.925,84.729l-1069.48,286.579c-36.929,9.883 -74.863,-12.025 -84.754,-48.946l-100.309,-374.313c-9.891,-36.916 12.025,-74.862 48.934,-84.758l1069.5,-286.55c36.908,-9.904 74.854,12.004 84.758,48.934l100.279,374.325Z" style="fill:#c41130;fill-rule:nonzero;"/><path d="M1311.05,433.613c9.9,36.891 -12,74.841 -48.925,84.729l-1069.48,286.579c-36.929,9.883 -74.863,-12.025 -84.754,-48.946l-100.309,-374.313c-9.891,-36.916 12.025,-74.862 48.934,-84.758l1069.5,-286.55c36.908,-9.904 74.854,12.004 84.758,48.934l100.279,374.325Z" style="fill:none;stroke:#fff;stroke-width:10.42px;"/><path d="M290.375,499.008c7.283,27.142 10.729,54.95 -20.483,63.305c-31.205,8.375 -42.467,-17.355 -49.721,-44.484c-7.279,-27.15 -10.371,-55.033 20.804,-63.391c31.242,-8.367 42.142,17.429 49.4,44.57Zm58.242,78.934l-45.809,-170.967l-33.583,8.992l4.9,18.308c-17.063,-12.129 -32.242,-13.142 -50.567,-8.237c-17.308,4.629 -30.416,13.95 -37.37,25.991c-12.18,21.088 -8.438,45.888 -0.621,75.067c7.816,29.171 16.975,52.525 38.05,64.704c12.062,6.946 27.829,8.888 45.133,4.263c17.654,-4.725 30.629,-13.296 39.171,-31.592l5.912,22.05c6.18,23.091 0.534,46.762 -28.65,54.592c-16.966,4.537 -27.808,1.991 -41.383,-5.275l-16.154,27.954c22.446,11.808 40.696,13.458 66.812,6.454c45.784,-12.284 65.434,-50.246 54.159,-92.304Z" style="fill:#fff;fill-rule:nonzero;"/><path d="M451.342,410.45c-9.88,-5.725 -16.996,-7.812 -28.863,-4.629c-18.683,4.992 -30.271,24.104 -23.904,47.85l27.992,104.454l-34.592,9.275l-46.087,-171.971l33.912,-9.087l5.004,18.654c5.55,-14.579 20.904,-27.771 40.246,-32.963c16.617,-4.45 30.35,-3.4 45.413,5.292l-19.121,33.125Z" style="fill:#fff;fill-rule:nonzero;"/><path d="M612.779,441.721c3.263,12.208 3.088,20.992 -0.658,27.437c-6.792,11.255 -16.358,14.917 -29.592,18.463c-21.692,5.817 -33.887,-0.35 -38.079,-15.954c-4.183,-15.609 3.887,-27.588 24.242,-33.038l40.354,-10.812l3.733,13.904Zm51.221,52.791l-30.817,-114.983c-10.441,-39.004 -39.533,-52.662 -86.696,-40.016c-28.504,7.633 -43.92,17.933 -55.116,41.279l28.471,15.279c6.216,-14.729 14.212,-21.608 33.212,-26.696c26.771,-7.183 40.467,0.417 46.259,22.137l3.279,12.209l-45.463,12.196c-39.337,10.533 -53.796,36.575 -46.075,65.416c3.917,14.588 12.184,26.559 23.475,33.338c13.329,7.7 28.946,8.958 50.3,3.233c21.379,-5.725 31.879,-13.987 41.063,-29.891l4.204,15.599l33.904,-9.1Z" style="fill:#fff;fill-rule:nonzero;"/><path d="M811.892,454.883l-28.088,-104.8c-7.171,-26.804 -25.529,-34.258 -44.862,-29.05c-19.334,5.175 -32.434,21.392 -25.346,47.859l28.079,104.808l-34.583,9.271l-46.088,-171.963l33.925,-9.1l4.621,17.3c8.429,-16.062 23.321,-26.962 40.621,-31.6c17.641,-4.721 33.775,-2.875 46.596,4.246c16.666,9.338 25.108,24.529 30.287,43.863l29.463,109.891l-34.625,9.275Z" style="fill:#fff;fill-rule:nonzero;"/><path d="M950.979,417.633c-32.212,8.625 -53.333,-10.437 -59.958,-35.204l-25.379,-94.629l-19.667,5.275l-7.079,-26.463l19.666,-5.275l-13.995,-52.241l34.579,-9.259l14.025,52.242l33.221,-8.912l7.096,26.462l-33.221,8.896l24.908,92.946c3.338,12.546 11.442,18.379 24.321,14.925l14.254,-3.825l7.904,29.512l-20.675,5.55Z" style="fill:#fff;fill-rule:nonzero;"/><path d="M954.504,229.083l-17.829,-66.483l34.608,-9.254l10.321,38.483l-27.1,37.254Z" style="fill:#fff;fill-rule:nonzero;"/><path d="M1089.91,382.575c-28.159,7.55 -53.192,9.167 -78.9,-5.396l16.658,-28.821c17.729,10.521 37.379,9.238 54.342,4.713c21.029,-5.642 35.629,-17.554 31.291,-33.825c-3.096,-11.55 -11.541,-17.283 -28.525,-14.171l-28.112,4.971c-32.967,5.929 -55.525,-3.663 -63.604,-33.854c-9.013,-33.579 14.729,-60.292 50.691,-69.929c25.775,-6.892 49.271,-7.4 68.95,2.233l-15.787,27.875c-13.325,-6.246 -29.509,-5.546 -45.78,-1.179c-20.687,5.537 -28.737,17.516 -25.308,30.4c2.742,10.175 10.263,16.525 29.034,13.32l27.779,-4.899c32.933,-5.946 56.025,4.245 64.195,34.779c9.646,35.954 -15.875,62.783 -56.924,73.783Z" style="fill:#fff;fill-rule:nonzero;"/></g></svg>